<?xml version="1.0" encoding="UTF-8"?>
<svg version="1.1" xmlns="http://www.w3.org/2000/svg" width="500" height="500">
<path d="M0 0 C165 0 330 0 500 0 C500 165 500 330 500 500 C335 500 170 500 0 500 C0 335 0 170 0 0 Z " fill="#091B7B" transform="translate(0,0)"/>
<path d="M0 0 C165 0 330 0 500 0 C500 68.31 500 136.62 500 207 C430.04902322 230.31699226 430.04902322 230.31699226 395 214 C383.5015457 208.18324837 372.98020074 201.11208446 362.75 193.31884766 C359.93580609 191.19799449 357.06283569 189.16178175 354.1875 187.125 C350.37164899 184.42181239 346.57782629 181.69547839 342.82421875 178.90625 C331.95112358 170.86131885 320.74784994 163.69990782 309 157 C308.29584961 156.59297852 307.59169922 156.18595703 306.86621094 155.76660156 C289.11139455 145.57829182 269.77414616 138.18468466 250 133 C248.8553125 132.66742188 247.710625 132.33484375 246.53125 131.9921875 C237.04499133 129.37315522 227.39853803 127.8319975 217.6875 126.3125 C216.9959079 126.20381592 216.3043158 126.09513184 215.59176636 125.9831543 C192.82215874 122.43252251 169.61812752 120.7315205 147 126 C145.62037134 126.28407988 144.24014594 126.56527519 142.859375 126.84375 C108.62989945 133.9923925 78.4939819 152.73097362 49.35546875 171.23828125 C38.75187246 177.9667325 28.00053198 184.1588173 16.875 190 C15.23700439 190.86516235 15.23700439 190.86516235 13.56591797 191.74780273 C12.53096191 192.28477783 11.49600586 192.82175293 10.4296875 193.375 C9.04112549 194.09816406 9.04112549 194.09816406 7.62451172 194.8359375 C5 196 5 196 0 197 C0 131.99 0 66.98 0 0 Z " fill="#0A123F" transform="translate(0,0)"/>
<path d="M0 0 C1.18489014 0.00749268 2.36978027 0.01498535 3.59057617 0.02270508 C13.13918836 0.13896939 22.38105452 0.80554439 31.8125 2.25 C33.45774658 2.49194092 33.45774658 2.49194092 35.13623047 2.73876953 C88.10156214 10.619132 131.17264673 31.20228041 174.12890625 62.3828125 C205.897143 85.42961709 233.5733739 104.00526265 274.7578125 98.703125 C286.82617483 96.7446022 298.38622375 92.61301423 309.89892578 88.60400391 C311.14013184 88.17265137 312.38133789 87.74129883 313.66015625 87.296875 C314.77398682 86.90338867 315.88781738 86.50990234 317.03540039 86.10449219 C319.8125 85.25 319.8125 85.25 322.8125 85.25 C322.8125 127.82 322.8125 170.39 322.8125 214.25 C309.01205214 207.34977607 296.63970798 198.10217991 284.296875 188.88671875 C258.29050616 169.48289229 230.74706759 152.17053563 199.79443359 141.92041016 C197.98267869 141.30756475 196.18744998 140.64640999 194.39453125 139.98046875 C181.5710762 135.33215075 168.18359368 132.79287504 154.8125 130.25 C153.3903418 129.97446289 153.3903418 129.97446289 151.93945312 129.69335938 C138.48354628 127.19710467 125.0188262 126.94719121 111.375 126.875 C110.524823 126.8669635 109.674646 126.858927 108.79870605 126.85064697 C97.41506483 126.76896199 86.92628089 127.7197392 75.8125 130.25 C74.48255005 130.53206299 74.48255005 130.53206299 73.12573242 130.81982422 C60.89601071 133.48836381 49.64242457 137.92358535 38.28466797 143.12109375 C36.00156287 144.16366515 33.70839245 145.17885001 31.41015625 146.1875 C14.52983274 153.71608888 -0.83805722 164.01286626 -16.45947266 173.80932617 C-24.29335072 178.7138776 -32.15891093 183.54386942 -40.19287109 188.11474609 C-41.53764492 188.88013144 -42.87906722 189.65143173 -44.21728516 190.42822266 C-72.65557357 206.84976108 -102.67806862 212.1573144 -134.73144531 204.1953125 C-140.59668449 202.59697195 -146.16160122 200.37850611 -151.75 198 C-152.563479 197.65380615 -153.37695801 197.3076123 -154.21508789 196.95092773 C-162.1426974 193.45646435 -169.48265751 189.35924933 -177.1875 185.25 C-177.1875 148.95 -177.1875 112.65 -177.1875 75.25 C-168.9375 71.29 -160.6875 67.33 -152.1875 63.25 C-141.27698752 57.00708644 -130.62104251 50.57374015 -120.0859375 43.7421875 C-91.07678111 25.10571816 -60.52905266 8.24510016 -26.1875 2.25 C-25.19862793 2.07227051 -24.20975586 1.89454102 -23.19091797 1.71142578 C-15.40798469 0.40458536 -7.8851531 -0.06699317 0 0 Z " fill="#0F1B5E" transform="translate(177.1875,121.75)"/>
<path d="M0 0 C29.72305989 22.11698888 57.86707763 40.19188423 96.27734375 35.69921875 C106.61645668 34.14279315 116.6102979 31.31837471 126.65234375 28.44921875 C126.65234375 46.26921875 126.65234375 64.08921875 126.65234375 82.44921875 C-38.34765625 82.44921875 -203.34765625 82.44921875 -373.34765625 82.44921875 C-373.34765625 18.44921875 -373.34765625 18.44921875 -372.34765625 17.44921875 C-370.70702295 17.1484856 -369.05965371 16.88425904 -367.41015625 16.63671875 C-361.6308071 15.61421852 -356.70027409 13.8043706 -351.34765625 11.44921875 C-349.59001953 10.72412109 -349.59001953 10.72412109 -347.796875 9.984375 C-331.85502933 3.34411853 -317.32430456 -5.46860856 -302.73999023 -14.65673828 C-274.78922151 -32.26216436 -247.42048422 -48.84292537 -215.34765625 -57.55078125 C-214.42339844 -57.84726562 -213.49914062 -58.14375 -212.546875 -58.44921875 C-140.21196001 -81.17340666 -56.28268145 -41.95901148 0 0 Z " fill="#12289E" transform="translate(373.34765625,417.55078125)"/>
<path d="M0 0 C165 0 330 0 500 0 C500 37.29 500 74.58 500 113 C472.63514073 121.32843543 472.63514073 121.32843543 462 122 C460.26943359 122.12181641 460.26943359 122.12181641 458.50390625 122.24609375 C431.13745437 123.25288629 409.27702533 105.44047271 388.5 89.9375 C379.31413624 83.09660074 369.85172822 76.84074352 360 71 C359.3076123 70.58911133 358.61522461 70.17822266 357.90185547 69.75488281 C345.58007579 62.56742489 332.45635217 57.64141563 319 53 C317.78054688 52.57847656 316.56109375 52.15695313 315.3046875 51.72265625 C286.98105719 42.88483176 253.01001186 38.56822168 224 46 C222.87335938 46.23203125 221.74671875 46.4640625 220.5859375 46.703125 C195.00472711 52.48867591 172.3242689 67.26779741 150.484375 81.15234375 C148.98977558 82.10186517 147.49499386 83.05109974 146 84 C145.34580078 84.41523926 144.69160156 84.83047852 144.01757812 85.25830078 C127.32639321 95.77930521 107.23954561 107.47109201 87 108 C86.05382812 108.05027344 85.10765625 108.10054688 84.1328125 108.15234375 C53.26740637 109.09566301 25.80408428 91.5849172 0 77 C0 51.59 0 26.18 0 0 Z " fill="#0A0F24" transform="translate(0,0)"/>
<path d="M0 0 C3.78149501 1.26049834 7.30327395 2.48800616 10.93310547 4.04931641 C12.34601868 4.65491646 12.34601868 4.65491646 13.78747559 5.27275085 C14.80378052 5.7112587 15.82008545 6.14976654 16.8671875 6.6015625 C18.49291687 7.29950676 18.49291687 7.29950676 20.15148926 8.0115509 C23.11094762 9.28256108 26.06948746 10.55568077 29.0276413 11.82972336 C32.12786619 13.16435125 35.22924725 14.49628648 38.33056641 15.82836914 C42.2115265 17.49549633 46.09238368 19.16286115 49.9727478 20.83137512 C59.34303444 24.86033736 68.71723885 28.88007815 78.09375 32.89453125 C79.39755503 33.45281388 80.70135755 34.01110241 82.00515747 34.56939697 C87.0395968 36.72510592 92.07408881 38.88069164 97.10882568 41.03570557 C100.58060711 42.52193231 104.05206061 44.00892243 107.5234375 45.49609375 C108.56036743 45.93975784 109.59729736 46.38342194 110.66564941 46.8405304 C111.60791382 47.24434433 112.55017822 47.64815826 113.52099609 48.06420898 C114.34248138 48.41595688 115.16396667 48.76770477 116.01034546 49.13011169 C117.35605489 49.71846353 118.68635112 50.34317556 120 51 C120 58.26 120 65.52 120 73 C90.21290378 85.97334851 60.39608318 98.86493777 30.48388672 111.54711914 C28.84679749 112.24199684 28.84679749 112.24199684 27.17663574 112.95091248 C25.16017121 113.80665698 23.14321008 114.66123288 21.12561035 115.51429749 C15.43649125 117.92881502 9.80910767 120.44610754 4.21401978 123.0718689 C2 124 2 124 0 124 C0 115.42 0 106.84 0 98 C17.22640997 90.48999788 34.48341327 83.05130539 51.76486206 75.66882324 C53.8746376 74.76688055 55.98379297 73.8634858 58.09231567 72.95861816 C61.08976397 71.67275286 64.08949791 70.39236838 67.08984375 69.11328125 C68.4351265 68.53435875 68.4351265 68.53435875 69.80758667 67.94374084 C74.48932625 65.95523665 79.07305781 64.27067422 84 63 C84 62.34 84 61.68 84 61 C83.46247604 60.82975311 82.92495209 60.65950623 82.37113953 60.48410034 C76.56037106 58.60111457 70.94987865 56.40025624 65.33203125 54.0078125 C64.42593109 53.62501633 63.51983093 53.24222015 62.58627319 52.8478241 C59.66018487 51.61038466 56.73628327 50.36787476 53.8125 49.125 C51.79669666 48.27092215 49.78082709 47.41700061 47.76489258 46.56323242 C31.80495316 39.79678765 15.88531245 32.9397012 0 26 C0 17.42 0 8.84 0 0 Z " fill="#FBFBFC" transform="translate(92,177)"/>
<path d="M0 0 C43.89 0 87.78 0 133 0 C133 4.95 133 9.9 133 15 C132 16 132 16 129.81545925 16.12304783 C128.84296765 16.12212604 127.87047606 16.12120424 126.86851501 16.12025452 C125.75647202 16.12162918 124.64442902 16.12300385 123.49868774 16.12442017 C122.26798553 16.12082489 121.03728333 16.11722961 119.76928711 16.11352539 C118.48166977 16.11367142 117.19405243 16.11381744 115.86741638 16.1139679 C112.3262524 16.11425586 108.78512201 16.10835936 105.24396586 16.10139394 C101.54705012 16.09516017 97.85013369 16.09455658 94.1532135 16.09336853 C87.14796101 16.09025528 80.14272405 16.08204199 73.13747841 16.07201904 C65.16421124 16.0608577 57.19094335 16.0553474 49.21767032 16.05032361 C32.81177085 16.03985937 16.40588802 16.0220596 0 16 C0 10.72 0 5.44 0 0 Z " fill="#F0F1F6" transform="translate(285,315)"/>
</svg>
